<svg viewBox="0 0 1080 1080" fill="none" xmlns="http://www.w3.org/2000/svg" xmlns:xlink="http://www.w3.org/1999/xlink">
	<g clip-path="url(#clip552_429)">
		<circle id="circle" cx="540.390625" cy="540.519531" r="539.936768" fill="#1A1A1A" fill-opacity="1.000000"/>
		<path id="path" d="M783.4 771.81L785.71 774.76L783.4 771.81ZM783.4 771.81L747.23 753.52C701.54 733.05 660.75 724.33 608.64 735.19C611.86 721.53 617.31 704.87 618.29 691.48C589.46 691.48 592.9 689.76 591 697.21L585.77 719.75C583.74 729.57 581.8 739.1 579.48 749.22C574.99 768.79 570.32 788.32 566.19 808.81C562.14 828.93 557.18 848.59 553.28 868.83L541.9 929.85C537.11 908.58 533.74 887.81 529.32 866.42L488.1 681.27C480.5 680.72 470.84 685.35 465.74 688.01L475.53 735.57C433.28 725.16 394.39 730.87 353.46 746L334.18 754.55C328 757.68 322.46 759.78 315.55 763.71C309.51 767.16 303.89 770.83 297.35 773.99L309.72 751.28C319.9 731.63 336.42 701.53 337.2 678.07C331.09 675.01 322.62 669.42 316.66 669.34C314.26 692.21 296.54 724.35 285.93 744.42C270 774.54 261.41 782.48 243.68 806.88C233.64 820.7 240.87 843.34 271.41 821.37C288.23 809.26 294.75 803.36 313.27 792.98C379.38 755.95 403.43 751.31 480.91 757.33C482.02 768.78 486.28 782.54 488.52 793.61L510.94 902.28C517.65 935.87 528.38 999.64 536.15 1030.69L539.15 1043.62C540.41 1046.62 538.8 1044.66 541.46 1046.35C545.19 1043.73 545.77 1035.22 547 1029.6C548.23 1024.01 549.5 1018.08 550.78 1012.22C553.29 1000.68 555.5 987.6 557.81 975.52L602.53 759.48C642.42 748.39 690.12 756.69 722.83 769.64C735.35 774.59 780.87 797.44 791.89 805.23C806.61 815.64 822.53 834.93 835.81 829.4C844.77 825.66 844.02 815.55 837.15 806.33C824.02 788.72 820.2 785.17 809 765.55C800.22 750.17 793.25 736.47 785.11 720.58C775.99 702.79 767.79 676.98 764.94 671.99C759.99 672.49 758.88 674.24 754.48 676.77C750.62 678.99 749.03 679.85 745.83 682.21C747.19 693.27 758.47 719.53 762.98 729.79L783.4 771.81Z" fill="#F6E6D7" fill-opacity="1.000000" fill-rule="evenodd"/>
		<path id="path" d="M776.5 315.2C777.64 314.33 776.75 314.81 779.21 313.25C779.73 312.91 781.31 312 781.78 311.76C785.58 309.86 782.54 310.8 786.07 310.43L781.13 316.77C773.01 335.81 749.77 367.28 747.39 398.32C753.17 400.98 757.51 405.29 764 408.43C769.09 403.14 768.66 395.01 773.32 384.05C776.79 375.87 779.88 368.6 783.9 360.26C791.93 343.61 810.84 312.85 822.3 298.01C827.32 291.5 854.01 263.4 833.75 255.94C820.36 251.01 797.39 278.13 769.88 293.2C717.5 321.9 670.31 335.82 603.78 328.11L544.03 41.3C541.5 33.87 544.1 39.7 541.46 37.13C535.46 46.49 528.42 93.91 525.23 108.41C519.84 132.86 515.4 156.95 510.02 182.06C499.64 230.45 491.86 280.85 479.95 327.96C419.95 330.93 386.04 329.92 335.14 304.25C313.02 293.1 289.25 280.6 270.65 264.2C265.64 259.78 256.51 251.55 246.98 255.24C243.01 256.77 240.12 260.25 240.22 266.24C240.37 276.1 253.23 284.65 261.46 297.16C279.13 324.02 298.31 357.16 309.02 387.27C312.01 395.65 314.3 406.18 317.02 415.54C324.1 413.32 330.11 406.86 336.14 403.14C334.04 383.68 322.67 358.66 314.4 342.5L301.97 320.45C295.32 309.88 294.65 312.59 297.15 312.08C297.5 311.17 296.13 309.75 303.94 314.45L332.99 329.21C339.36 331.82 345.71 334.83 352.8 337.15C360.87 339.79 367.17 341.64 375.28 343.86C398.98 350.35 425.68 354.48 451.46 352.62C459.81 352.01 469.6 349.14 476.1 348.85L469.84 376.62C477.92 377.86 484.68 381.54 492.87 381.94L541.89 150.6C545.09 169.64 549.69 187.61 553.09 206.8C556.86 228.02 581.64 351.04 588.64 372.55C588.76 372.92 588.85 373.27 588.99 373.62L590.53 376.68L614.73 377.72L608.97 350.18C654.95 361.85 735.93 341.62 776.5 315.2Z" fill="#F6E6D7" fill-opacity="1.000000" fill-rule="evenodd"/>
		<path id="path" d="M652.62 478.16C638.79 493.85 622.36 517.97 602.89 518.73L602.84 458.35C602.84 434.07 611.35 429.57 627.56 427L627.56 414.63C608.5 414.63 559.44 413.25 543.67 415.52L543.66 427C558.99 429.79 567.96 433.18 567.96 457.02L567.96 610.68C567.96 628.72 562.71 640.19 543.62 640.66L543.67 652.92L626.24 653.51L626.24 640.7C603.55 639.99 602.83 624.73 602.84 602.73C602.85 581.99 602.84 561.24 602.84 540.5C623.2 540.22 630.99 544.83 639.89 555.89C647.21 564.99 654.28 575.84 659.86 586.18C666.23 597.98 672.23 609.55 677.41 620.32C680.25 626.2 683.01 631.18 686.06 636.91C687.66 639.93 688.9 642.73 690.45 645.7C692.71 650.04 692.44 650.14 696.28 652.84L752.77 653.68L752.49 642.47C744.49 637.05 741.42 638.24 734.29 631.12C718.68 615.54 709.79 598.39 698.79 579.32C691.48 566.66 684.56 554.99 676.3 543.45C671.43 536.65 668.63 533.36 662.82 527.75C642.55 508.17 644.46 521.18 669.13 489.23L695.21 458.4C700.02 452.72 704.05 446.8 711.31 441.51C723.06 432.94 733.66 431.86 742.84 427.45L741.93 414.63L668.78 414.99L668.62 428.32C696.76 431.42 671.44 456.16 668.62 459.75L652.62 478.16Z" fill="#F6E6D7" fill-opacity="1.000000" fill-rule="evenodd"/>
		<path id="path" d="M356.02 479.54C359.67 477.65 359.87 475.08 361.42 470.55C370.43 444.19 392.09 426.19 423.57 426.18C469.81 426.18 491.38 477.96 492.84 518.19L428.87 517.96C407.02 517.96 406.96 515.57 399.73 507.75L389.48 507.75L390.04 559.04C409.46 559.97 396.31 555.39 409.18 547.19C419.74 540.47 483.49 542.51 493.35 543.55C494.02 552.94 490.99 571.53 488.07 580.99C483.12 597.04 474.27 611.04 463.74 622.99C449.77 638.84 413 645.67 390.18 634.94C386.64 633.27 384.32 631.82 381.17 629.29C378.38 627.05 376.4 625.84 373.78 623.4C361.01 611.48 360.33 601.18 354.74 586.9L340.46 586.72L340.52 631.48C349.44 637.54 356.42 642.45 368.23 647.37C377.29 651.15 389.94 655.18 401.34 656.51C547.83 673.65 551.32 492.86 505.65 442.49C477.2 411.12 447.12 409.7 409 409.73C389.84 409.74 346.02 426.77 344.1 435.83L344.1 479.54L356.02 479.54Z" fill="#F6E6D7" fill-opacity="1.000000" fill-rule="evenodd"/>
		<path id="path" d="M158.04 539.87C169.38 538.86 182.1 535.36 193.16 532.8C204.74 530.12 216.43 527.82 227.78 524.94L297.59 509.53L297.73 486.99C288.38 487.62 273.5 491.66 264.2 493.48C252.8 495.72 242.98 498.04 232.49 500.22C174.6 512.3 111.73 523.18 54.26 536.68C39.3 540.2 42.84 537.78 40.76 542.24L234 581.81C248.39 584.71 284.01 595.11 297.51 594.51L297.5 572.06C271.44 568.98 183.46 543.9 158.04 539.87Z" fill="#F6E6D7" fill-opacity="1.000000" fill-rule="evenodd"/>
		<path id="path" d="M942.98 562.02C954.03 560.01 964.22 558.54 975.65 556.22L1039.52 542.22C1037.31 539.84 1039.55 541.22 1036.06 539.74L1024.19 537.17C1017.89 535.98 1013.31 534.84 1007.92 533.56C946.34 518.84 875.82 505.79 812.65 491.68C803.31 489.59 789.93 485.66 780.03 485.74L780.79 507.79L894.03 533.74C905.17 536.09 921.27 540.6 932.14 540.96L780.1 575.74L780.8 597.86C788.46 597.74 806.03 592.8 814.32 590.9C825.13 588.42 835.66 586.26 846.85 583.71L942.98 562.02Z" fill="#F6E6D7" fill-opacity="1.000000" fill-rule="evenodd"/>
		<path id="path" d="M593.17 175.02C656.95 181.15 718.36 208.68 766.32 245.44C772.95 250.52 779.44 257.69 786.52 261.47C792.59 258.74 802.31 253.84 805.43 247.74C784.64 223.42 742.75 197.33 712.42 182.59C680.58 167.11 634.06 148.64 587.3 147.86L593.17 175.02Z" fill="#F6E6D7" fill-opacity="1.000000" fill-rule="evenodd"/>
		<path id="path" d="M280.91 245.13C302.12 264.19 299.99 257.72 319.86 243.44C416.89 173.72 476.5 180.61 490.25 174.01C491.4 164.54 495.18 156.67 496.87 147.82C435.14 149.75 369.95 178.83 323.75 210.1C314.33 216.48 284.94 236.54 280.91 245.13Z" fill="#F6E6D7" fill-opacity="1.000000" fill-rule="evenodd"/>
		<path id="path" d="M371.28 901.6C405.57 917.57 455.21 935.77 495.52 935.63C494.66 929.82 493.05 923.83 491.67 918.94C488.94 909.29 491.94 910.32 481.43 909.04C443.45 904.45 396.95 888.56 365.6 869.87C346.7 858.61 337.49 853.48 318.79 839.93C312.26 835.19 302.31 826.41 296.41 823.52C291.98 825.43 282.66 832.24 279.19 835.32C284.6 852.2 354.81 893.93 371.28 901.6Z" fill="#F6E6D7" fill-opacity="1.000000" fill-rule="evenodd"/>
		<path id="path" d="M587.83 936.54C677.05 925.4 727.55 900.81 795.64 846.41C802.97 840.55 803.21 840.67 804.18 835.42C796.19 833.42 794.02 826.62 785.19 824.78C781.39 826.92 778.21 830.12 774.46 833.05C752.39 850.25 725.35 867.18 700.57 879.58C677.8 890.97 649.29 899.88 622.99 905.27C613.73 907.17 603.52 909.55 593.2 909.71L587.83 936.54Z" fill="#F6E6D7" fill-opacity="1.000000" fill-rule="evenodd"/>
		<path id="path" d="M146.29 490.14L167.67 487.08C171.46 486.27 173.97 485.9 175.09 482.84L185.98 435.44C191.09 417.59 196.18 405.67 202.28 390.88C208.11 376.76 215.03 363.77 222.84 350.43C225.23 346.33 245.67 313.03 245.67 312.64C245.67 308.83 236.73 295.58 234.15 292.97C228.42 295.03 221.77 304.94 217.46 310.45C212.2 317.16 207.77 323.79 202.92 331.61C187.38 356.65 178.54 376.75 167.78 403.72C158.24 427.68 147.62 464.06 146.29 490.14Z" fill="#F6E6D7" fill-opacity="1.000000" fill-rule="evenodd"/>
		<path id="path" d="M176.38 606.49C174.93 591.18 179.2 595.21 147.24 589.99C145.17 601.29 155.35 638.81 158.06 649.57C163.51 671.16 177.96 706.77 189 725.92C195.81 737.75 223.54 783.92 234.16 788.18C238.65 785.21 247.35 772.29 247.4 770.96C247.52 768.25 226.16 736.72 223.04 731.77C214.58 718.35 208.82 705.74 201.5 691.16C191.37 670.99 178.65 630.25 176.38 606.49Z" fill="#F6E6D7" fill-opacity="1.000000" fill-rule="evenodd"/>
		<path id="path" d="M835.08 311.32L859.74 349.24C867.65 362.47 874.52 374.51 881.48 389.69C888.38 404.71 893.32 418.14 898.75 434.68C903.01 447.66 909.14 483.81 910.82 485.28C916.52 488.07 928.69 490.37 935.91 489.85C937.31 474.5 928.82 441.92 924.06 428.13C917.89 410.25 911.42 393.27 903.98 378.12C894.07 357.93 891.17 352.01 878.95 332.88C872.09 322.13 857.18 299.01 847.45 293.65C842.23 296.52 837.34 305.6 835.08 311.32Z" fill="#F6E6D7" fill-opacity="1.000000" fill-rule="evenodd"/>
		<path id="path" d="M850.55 789.5C853.11 786.46 855.83 782.61 858.44 779.21L880.79 748.6C907.51 707.21 934.3 644.12 936.2 591.69C928.29 591.47 916.34 592.97 910.56 595.63L908.66 601.75C905.3 624.13 906.05 623.22 899.66 648.47C889.94 686.85 868.68 720.99 847.21 752.26C832.91 773.09 832.96 767.86 842.39 781.25C844.99 784.93 846.84 787.63 850.55 789.5Z" fill="#F6E6D7" fill-opacity="1.000000" fill-rule="evenodd"/>
		<path id="path" d="M825.09 631.37C835.65 631.37 844.21 639.93 844.21 650.5C844.21 661.06 835.65 669.63 825.09 669.63C814.52 669.63 805.96 661.06 805.96 650.5C805.96 639.93 814.52 631.37 825.09 631.37Z" fill="#F6E6D7" fill-opacity="1.000000" fill-rule="evenodd"/>
		<path id="path" d="M825.09 428.73C835.65 428.73 844.21 437.29 844.21 447.86C844.21 458.42 835.65 466.99 825.09 466.99C814.52 466.99 805.96 458.42 805.96 447.86C805.96 437.29 814.52 428.73 825.09 428.73Z" fill="#F6E6D7" fill-opacity="1.000000" fill-rule="evenodd"/>
		<path id="path" d="M258.59 428.73C269.16 428.73 277.72 437.29 277.72 447.86C277.72 458.42 269.16 466.99 258.59 466.99C248.02 466.99 239.46 458.42 239.46 447.86C239.46 437.29 248.02 428.73 258.59 428.73Z" fill="#F6E6D7" fill-opacity="1.000000" fill-rule="evenodd"/>
		<path id="path" d="M258.59 629.74C269.16 629.74 277.72 638.3 277.72 648.86C277.72 659.43 269.16 667.99 258.59 667.99C248.02 667.99 239.46 659.43 239.46 648.86C239.46 638.3 248.02 629.74 258.59 629.74Z" fill="#F6E6D7" fill-opacity="1.000000" fill-rule="evenodd"/>
		<path id="path" d="M431.5 804.72C442.06 804.72 450.62 813.28 450.62 823.85C450.62 834.41 442.06 842.98 431.5 842.98C420.93 842.98 412.37 834.41 412.37 823.85C412.37 813.28 420.93 804.72 431.5 804.72Z" fill="#F6E6D7" fill-opacity="1.000000" fill-rule="evenodd"/>
		<path id="path" d="M431.5 244.89C442.06 244.89 450.62 253.45 450.62 264.02C450.62 274.58 442.06 283.15 431.5 283.15C420.93 283.15 412.37 274.58 412.37 264.02C412.37 253.45 420.93 244.89 431.5 244.89Z" fill="#F6E6D7" fill-opacity="1.000000" fill-rule="evenodd"/>
		<path id="path" d="M650.24 244.87C660.8 244.87 669.37 253.43 669.37 264C669.37 274.56 660.8 283.13 650.24 283.13C639.67 283.13 631.11 274.56 631.11 264C631.11 253.43 639.67 244.87 650.24 244.87Z" fill="#F6E6D7" fill-opacity="1.000000" fill-rule="evenodd"/>
		<path id="path" d="M650.24 807.32C660.8 807.32 669.37 815.88 669.37 826.45C669.37 837.01 660.8 845.58 650.24 845.58C639.67 845.58 631.11 837.01 631.11 826.45C631.11 815.88 639.67 807.32 650.24 807.32Z" fill="#F6E6D7" fill-opacity="1.000000" fill-rule="evenodd"/>
	</g>
</svg>
